<?xml version="1.0" encoding="UTF-8" standalone="no"?>
<svg
   xmlns:dc="http://purl.org/dc/elements/1.1/"
   xmlns:cc="http://creativecommons.org/ns#"
   xmlns:rdf="http://www.w3.org/1999/02/22-rdf-syntax-ns#"
   xmlns:svg="http://www.w3.org/2000/svg"
   xmlns="http://www.w3.org/2000/svg"
   xmlns:sodipodi="http://sodipodi.sourceforge.net/DTD/sodipodi-0.dtd"
   xmlns:inkscape="http://www.inkscape.org/namespaces/inkscape"
   id="Ebene_1"
   data-name="Ebene 1"
   width="239.69199"
   height="177.55197"
   viewBox="0 0 935.48358 692.1823"
   version="1.1"
   sodipodi:docname="cfaed.svg"
   inkscape:version="1.0.2 (e86c870879, 2021-01-15, custom)">
  <metadata
     id="metadata89">
    <rdf:RDF>
      <cc:Work
         rdf:about="">
        <dc:format>image/svg+xml</dc:format>
        <dc:type
           rdf:resource="http://purl.org/dc/dcmitype/StillImage" />
        <dc:title>cfaed</dc:title>
      </cc:Work>
    </rdf:RDF>
  </metadata>
  <sodipodi:namedview
     pagecolor="#ffffff"
     bordercolor="#666666"
     borderopacity="1"
     objecttolerance="10"
     gridtolerance="10"
     guidetolerance="10"
     inkscape:pageopacity="0"
     inkscape:pageshadow="2"
     inkscape:window-width="1916"
     inkscape:window-height="1041"
     id="namedview87"
     showgrid="false"
     inkscape:zoom="2.3076222"
     inkscape:cx="78.339275"
     inkscape:cy="101.41814"
     inkscape:window-x="0"
     inkscape:window-y="18"
     inkscape:window-maximized="0"
     inkscape:current-layer="Ebene_1"
     fit-margin-top="0"
     fit-margin-left="0"
     fit-margin-right="0"
     fit-margin-bottom="0" />
  <defs
     id="defs4">
    <style
       id="style2">.cls-1{fill:#b2d235;}.cls-2{fill:#89c765;}.cls-3{fill:#5aba47;}.cls-4{fill:#00b48d;}.cls-5{fill:#00ab58;}.cls-6{fill:#00a94f;}.cls-7{fill:#00aaad;}.cls-8{fill:#00a651;}.cls-9{fill:#00a774;}.cls-10{fill:#00a656;}.cls-11{fill:#71cfea;}.cls-12{fill:#00aaa8;}.cls-13{fill:#00a771;}.cls-14{fill:#00a655;}.cls-15{fill:#2babc8;}.cls-16{fill:#00a0bf;}.cls-17{fill:#00958d;}.cls-18{fill:#009361;}.cls-19{fill:#275e87;}.cls-20{fill:#245a30;}.cls-21{fill:#005865;}.cls-22{fill:#005732;}.cls-23{fill:#005b83;}.cls-24{fill:#005862;}.cls-25{fill:#005072;}.cls-26{fill:#004f6e;}.cls-27{fill:#004e53;}</style>
    <clipPath
       clipPathUnits="userSpaceOnUse"
       id="clipPath961">
      <rect
         style="fill:none;stroke:#000000;stroke-width:34.4818;stroke-linecap:square;stroke-miterlimit:3.8"
         id="rect963"
         width="978.20972"
         height="864.98041"
         x="-40.256119"
         y="-58.394341"
         ry="108.2012" />
    </clipPath>
  </defs>
  <title
     id="title6">cfaed</title>
  <g
     id="g955"
     clip-path="url(#clipPath961)"
     transform="translate(-2.47,-9.5314286)">
    <path
       d="m 744,195.88 c -8.32,-9.24 -12.48,-20.46 -12.48,-34.32 0.31,-12.21 3.84,-22.45 11.2,-31 8.65,-9.91 19.86,-14.85 33.94,-14.85 14.09,0.33 25.3,4.94 33.62,14.51 7.68,8.92 11.2,19.16 11.2,31.37 -0.32,11.87 -3.52,22.11 -10.24,31 -8.65,10.9 -20.18,16.18 -35.22,16.18 -13.13,0 -23.69,-4.3 -32,-12.88 M 871.78,9.72 H 818.64 V 86.3 A 70.92,70.92 0 0 0 802,73.1 c -10.25,-5.95 -22.1,-8.59 -35.54,-8.59 -24.34,0.34 -44.51,8.59 -61.16,25.42 -17.93,18.48 -26.89,42.25 -26.89,71.95 0.32,28.39 8.32,51.5 24.65,70 16.65,18.81 38.1,28.06 64.36,28.06 15.36,-0.34 28.17,-3.63 38.42,-10.24 A 58.08,58.08 0 0 0 821.2,234.2 V 254 h 50.59 z m -342.1,132.36 a 40.51,40.51 0 0 1 10.88,-19.8 c 7.69,-7.92 17.29,-11.56 29.46,-11.56 12.49,0.33 22.41,4 29.77,11.56 a 35.29,35.29 0 0 1 10.57,19.8 z M 603,196.54 c -4.49,5.61 -9,9.9 -13.77,12.87 -5.12,3 -11.2,4.29 -18.57,4.29 -10.88,-0.32 -20.17,-3.29 -27.85,-9.24 A 37.14,37.14 0 0 1 529,179.05 h 133.23 a 15,15 0 0 0 0.64,-5.62 38.15,38.15 0 0 0 0.65,-8.91 c 0,-28.38 -9,-51.82 -26.9,-71 -17.93,-19.47 -40,-29 -66.92,-29 -26.58,0 -48.66,9.9 -66.6,29.71 -17.94,19.81 -26.57,42.58 -26.57,68.66 0.32,27.39 9.29,50.17 27.53,69 18.89,18.81 41,28.06 66.6,28.06 19.21,-0.34 35.86,-5.61 50.59,-16.51 a 90.64,90.64 0 0 0 20.49,-19.8 118.51,118.51 0 0 0 15.69,-27.07 z m -273.72,-4.28 c -6.72,-9.25 -9.93,-18.83 -9.93,-29.38 0,-12.22 3.52,-22.45 10.57,-31.37 8.64,-10.56 19.53,-15.83 33.3,-15.83 14.41,0 25.61,4.94 33.94,14.85 7.36,8.91 10.84,19.47 10.84,31.68 -0.32,11.56 -3.52,21.46 -9.92,30.37 -8.32,11.23 -19.86,16.5 -34.58,16.5 -14.72,0 -25.94,-5.6 -34.26,-16.82 M 461.19,70.79 H 408 l -0.64,19.47 A 49.64,49.64 0 0 0 389.8,73.1 c -10.25,-5.95 -21.45,-8.59 -34.26,-8.59 -24.66,0.34 -45.47,8.91 -62.44,26.41 q -26.89,27.72 -26.89,71.29 c 0.32,27.4 8,50.18 23.69,68.66 17,19.8 38.74,29.38 65.64,29.38 11.2,-0.33 21.45,-2.31 31,-6.6 9.92,-4.62 17,-10.9 21.45,-19.47 V 254 h 53.15 z"
       id="path8" />
    <path
       d="M 163.73,88.85 C 142.26,72 123.53,65.1 98.4,65.1 44,65.1 2.47,107.58 2.47,164.22 c 0,54.37 41.57,96.39 95.93,96.39 25.13,0 46.14,-8.22 67.61,-26 v -24.7 c -20.1,22.83 -42,33.8 -67.61,33.8 -42.94,0 -77.2,-35.64 -77.2,-80.39 C 21.2,118.09 55,82 97.94,82 c 25.13,0 43.4,8.68 65.79,31.06 z"
       id="path10" />
    <path
       d="m 199.73,91.59 v 162.79 h 17.55 V 87.45 h 45.2 V 70.69 h -45.2 V 70.11 C 217.28,36.76 228,26 248,25.77 c 3.07,0 14.48,0 14.48,0 V 9.1 h -16.67 c -30.72,0 -46.08,20.63 -46.08,61 v 5.26"
       id="path12" />
    <path
       class="cls-1"
       d="M 730,388.78 C 844.15,390.05 920.66,252.23 920.66,252.23 896.09,276.81 876,299.16 848,312.56 c -23.46,11.18 -52.51,15.65 -86,15.65 H 152.6 L 730,388.78"
       id="path14" />
    <path
       class="cls-2"
       d="m 920.62,252.28 v -0.05 0 M 514.81,401 162.15,394.91 503.39,365 638.39,379.16 514.81,401"
       id="path16" />
    <path
       class="cls-3"
       d="M 638.34,379.17 503.38,365 769.23,341.74 c 33.39,-2.92 61.95,-9.91 84.35,-23.08 26.64,-15.78 44.71,-39.78 67,-66.39 v 0 c -19.92,28.46 -35.84,53.95 -61,72 -21.17,15.07 -49,24.53 -82,30.35 l -139.24,24.55"
       id="path18" />
    <polygon
       class="cls-4"
       points="529.3,435.75 177.46,460.43 514.81,400.95 650.48,403.3 "
       id="polygon20" />
    <path
       class="cls-5"
       d="m 920.64,252.26 v 0 0 m -81.56,95 c 44.62,-35.06 73.49,-81.29 80.12,-92.5 -16.69,29.08 -30.2,54.94 -53.07,74.54 a 143.5,143.5 0 0 1 -27,18 m -188.6,56 -135.72,-2.3 123.54,-21.78 73.42,7.7 -61.29,16.42"
       id="path22" />
    <path
       class="cls-6"
       d="m 711.77,386.87 -73.43,-7.7 139.27,-24.56 c 33,-5.83 60.84,-15.28 82,-30.35 25.18,-18.05 41.1,-43.54 61,-72 v 0 l -1.44,2.51 c -6.64,11.21 -35.51,57.44 -80.13,92.5 -15.13,7.88 -32.58,14.22 -52,19.43 l -75.31,20.18"
       id="path24" />
    <path
       class="cls-7"
       d="m 920.66,252.24 m 0,0 v 0 c 0,0 0,0 0,0 m -722.23,272.17 330.88,-88.65 135.35,-9.49 -117.88,42.9 -348.35,55.24"
       id="path26" />
    <path
       class="cls-8"
       d="m 920.65,252.26 v 0 0"
       id="path28" />
    <path
       class="cls-9"
       d="m 920.65,252.24 v 0 0 m -0.27,0.61 c 0.13,-0.27 0.21,-0.46 0.26,-0.55 v 0 c -0.09,0.19 -0.18,0.39 -0.27,0.57 M 847.66,354 c 43.23,-40.53 68.28,-91.69 72.4,-100.47 -14.4,31 -25.64,58.38 -47,80.23 A 144.72,144.72 0 0 1 847.66,354 m -318.35,81.76 121.17,-32.47 73.8,1.27 -59.62,21.71 -135.35,9.49"
       id="path30" />
    <path
       class="cls-8"
       d="m 920.63,252.3 v -0.06 0 c 0,0 0,0 0,0 v 0"
       id="path32" />
    <path
       class="cls-10"
       d="m 920.65,252.25 v 0 0 m -196.37,152.31 -73.81,-1.27 61.3,-16.42 18.23,1.91 h 1.57 c 41.48,0 77.95,-18.32 107.5,-41.53 a 144,144 0 0 0 27,-17.95 c 22.85,-19.61 36.38,-45.47 53.08,-74.55 0.81,-1.37 1.29,-2.22 1.42,-2.46 0,0.1 -0.13,0.28 -0.25,0.56 -0.12,0.28 -0.21,0.45 -0.32,0.67 -4.11,8.78 -29.17,60 -72.4,100.48 -14.38,9.17 -31.21,17 -50.1,23.88 l -73.28,26.67"
       id="path34" />
    <path
       class="cls-8"
       d="m 919.21,254.76 1.44,-2.51 v 0 0.06 c -0.13,0.24 -0.61,1.08 -1.42,2.46 m -187.63,134 H 730 l -18.24,-1.91 75.31,-20.18 c 19.42,-5.21 36.88,-11.55 52,-19.43 -29.56,23.21 -66,41.53 -107.5,41.53"
       id="path36" />
    <path
       class="cls-11"
       d="m 920.67,252.23 v 0 m 0,0 v 0 m -695.76,334.09 321.87,-117.15 134,-21.26 -113.68,53 -342.19,85.41"
       id="path38" />
    <path
       class="cls-3"
       d="m 920.67,252.24 v 0"
       id="path40" />
    <path
       class="cls-12"
       d="m 856.82,360 c 42.64,-47.62 63.14,-105.71 63.83,-107.69 v 0 c 0,0 0,0 0,0.05 -11.87,32.63 -20.66,61.35 -40.29,85.3 A 144.1,144.1 0 0 1 856.82,360 m -310,109.2 117.87,-42.9 73.66,-5.17 -57.55,26.79 -134,21.25"
       id="path42" />
    <path
       class="cls-13"
       d="m 664.66,426.27 59.62,-21.71 18.36,0.32 c 42,-3.21 77.26,-24.84 105,-50.87 a 144.26,144.26 0 0 0 25.4,-20.24 c 21.36,-21.85 32.6,-49.26 47,-80.23 0.13,-0.27 0.23,-0.49 0.32,-0.69 0.09,-0.2 0.18,-0.38 0.27,-0.57 -0.69,2 -21.19,60.08 -63.83,107.7 -13.52,10.39 -29.61,19.67 -47.84,28.17 l -70.67,33 -73.65,5.17"
       id="path44" />
    <path
       class="cls-14"
       d="m 920.06,253.54 0.32,-0.69 c -0.08,0.19 -0.19,0.42 -0.32,0.69 m -177.42,151.34 -18.36,-0.32 73.28,-26.67 c 18.89,-6.88 35.72,-14.71 50.1,-23.88 -27.76,26 -63,47.66 -105,50.87"
       id="path46" />
    <polygon
       class="cls-15"
       points="590.11,530.81 256.67,645.69 567.12,500.93 698.76,468.08 "
       id="polygon48" />
    <path
       class="cls-16"
       d="m 866.46,365.12 c 34.57,-46.13 50.45,-99.2 53.6,-110.65 -8.68,32.65 -15,61.32 -32.13,86.32 a 143.24,143.24 0 0 1 -21.47,24.33 m -299.34,135.81 113.68,-53 72.91,-11.55 -55,31.72 -131.59,32.83"
       id="path50" />
    <path
       class="cls-17"
       d="m 680.8,447.92 57.51,-26.82 18.31,-1.28 C 798.2,413 831.43,388.33 856.83,360 a 144.87,144.87 0 0 0 23.51,-22.37 c 19.64,-23.94 28.43,-52.67 40.3,-85.31 -0.19,0.73 -0.38,1.45 -0.58,2.18 -3.15,11.44 -19,64.5 -53.6,110.65 -12.57,11.53 -27.79,22.17 -45.21,32.23 l -67.55,39 -72.9,11.56"
       id="path52" />
    <path
       class="cls-18"
       d="m 738.31,421.1 70.67,-33 c 18.23,-8.5 34.32,-17.77 47.84,-28.17 -25.38,28.35 -58.62,53 -100.2,59.85 l -18.31,1.28"
       id="path54" />
    <path
       class="cls-15"
       d="m 920.67,252.3 v -0.07 0 0.07"
       id="path56" />
    <path
       class="cls-16"
       d="m 920.67,252.26 v 0 0 0"
       id="path58" />
    <path
       class="cls-19"
       d="m 920.66,252.24 v 0 m 0,0 v 0 M 293.48,702.06 590.11,530.81 805.59,456.56 c 102.7,-46.51 114.8,-200.51 115.07,-204.26 0.05,3.84 1.41,158.24 -96.84,213.52 L 293.48,702.06"
       id="path60" />
    <path
       class="cls-20"
       d="m 920.66,252.25 v 0"
       id="path62" />
    <path
       class="cls-21"
       d="m 920.66,252.24 v 0 m 0,0 v 0"
       id="path64" />
    <path
       class="cls-22"
       d="m 920.66,252.26 v 0"
       id="path66" />
    <path
       class="cls-23"
       d="m 920.65,252.29 c 0,0 0,0 0,0 v 0 0"
       id="path68" />
    <path
       class="cls-24"
       d="m 920.64,252.3 v 0"
       id="path70" />
    <path
       class="cls-25"
       d="m 590.11,530.81 108.65,-62.73 89.45,-22.33 c 106.76,-37.52 132,-190.83 132.45,-193.48 v 0 c -0.27,3.75 -12.37,157.75 -115.07,204.26 l -215.48,74.28"
       id="path72" />
    <path
       class="cls-26"
       d="m 698.76,468.08 55,-31.73 18.14,-2.87 c 40.83,-10.46 71.79,-37.9 94.61,-68.36 a 143.81,143.81 0 0 0 21.48,-24.33 c 17.09,-25 23.44,-53.67 32.13,-86.32 0.33,-1.21 0.52,-2 0.58,-2.18 v 0 0 c -0.43,2.66 -25.69,156 -132.45,193.5 l -89.45,22.32"
       id="path74" />
    <path
       class="cls-27"
       d="m 920.06,254.47 c 0.19,-0.72 0.39,-1.44 0.58,-2.17 -0.06,0.22 -0.25,1 -0.59,2.18 m -166.34,181.87 67.53,-39 c 17.43,-10.06 32.65,-20.7 45.22,-32.24 -22.82,30.46 -53.78,57.9 -94.61,68.36 l -18.14,2.87"
       id="path76" />
    <path
       d="m 1229.34,252.23 v -43.84 h -8.29 v 26.85 l -16.85,-26.85 h -7.4 v 43.84 h 8.29 v -26.9 l 16.85,26.9 z m -43.41,0 v -7.63 h -19.71 V 233.94 H 1183 v -7.63 h -16.78 V 216 h 19.71 v -7.63 h -28 v 43.84 z m -47.53,-22.11 c 0,6.66 -0.25,9.8 -1.79,11.77 a 7.35,7.35 0 0 1 -6.22,2.71 h -6.28 V 216 h 6.28 a 7.32,7.32 0 0 1 6.22,2.71 c 1.54,2 1.79,4.74 1.79,11.39 m 8.3,0 c 0,-6.59 0.47,-12.63 -4.3,-17.55 -2.81,-2.89 -6.81,-4.18 -11.24,-4.18 h -15.34 v 43.84 h 15.34 c 4.43,0 8.43,-1.3 11.24,-4.18 4.77,-4.93 4.3,-11.34 4.3,-17.93 m -41.17,9.18 c 0,-3.88 -1,-7.08 -3.29,-9.3 -1.78,-1.72 -4.24,-2.84 -8.12,-3.39 l -5,-0.74 a 7.18,7.18 0 0 1 -3.94,-1.72 4.27,4.27 0 0 1 -1.25,-3.14 c 0,-3 2.14,-5.55 6.57,-5.55 2.8,0 6,0.37 8.72,3 l 5.25,-5.35 c -3.63,-3.63 -7.87,-5.11 -13.73,-5.11 -9.21,0 -14.81,5.47 -14.81,13.29 0,3.7 1,6.53 3,8.63 1.91,1.91 4.59,3.08 8.24,3.63 l 5.14,0.74 a 6.29,6.29 0 0 1 3.76,1.54 4.91,4.91 0 0 1 1.32,3.7 c 0,3.51 -2.63,5.42 -7.53,5.42 -3.94,0 -7.59,-0.92 -10.27,-3.7 l -5.38,5.54 c 4.18,4.37 9.08,5.79 15.53,5.79 8.9,0 15.77,-4.8 15.77,-13.3 m -39.83,12.93 V 244.6 H 1046 v -10.66 h 16.79 v -7.63 H 1046 V 216 h 19.71 v -7.63 h -28 v 43.84 z m -47.88,-30.42 c 0,3.39 -2.39,5.79 -6,5.79 H 1004 V 216 h 7.84 c 3.64,0 6,2.4 6,5.79 m 10,30.42 -9.5,-18.91 a 11.77,11.77 0 0 0 7.77,-11.51 c 0,-7.33 -5.14,-13.42 -13.8,-13.42 h -16.65 v 43.84 h 8.34 v -17.47 h 6 l 8.3,17.49 z M 976.13,230.1 c 0,6.66 -0.24,9.8 -1.8,11.77 a 7.32,7.32 0 0 1 -6.21,2.71 h -6.28 V 216 h 6.28 a 7.29,7.29 0 0 1 6.21,2.71 c 1.56,2 1.8,4.74 1.8,11.39 m 8.3,0 c 0,-6.59 0.47,-12.63 -4.3,-17.55 -2.81,-2.89 -6.81,-4.18 -11.24,-4.18 h -15.33 v 43.84 h 15.34 c 4.43,0 8.43,-1.3 11.24,-4.18 4.77,-4.93 4.3,-11.34 4.3,-17.93"
       id="path78" />
    <path
       d="m 1363.52,173.78 c 0,-3.88 -1,-7.08 -3.28,-9.3 -1.79,-1.73 -4.23,-2.84 -8.12,-3.39 l -5,-0.74 a 7.32,7.32 0 0 1 -3.94,-1.72 4.34,4.34 0 0 1 -1.25,-3.14 c 0,-3 2.15,-5.55 6.57,-5.55 2.81,0 6,0.37 8.73,3 l 5.25,-5.35 c -3.65,-3.64 -7.88,-5.11 -13.74,-5.11 -9.2,0 -14.82,5.47 -14.82,13.29 0,3.7 1,6.53 3,8.63 1.91,1.9 4.6,3.07 8.25,3.63 l 5.13,0.74 a 6.23,6.23 0 0 1 3.77,1.54 5,5 0 0 1 1.31,3.69 c 0,3.52 -2.62,5.42 -7.52,5.42 -4,0 -7.59,-0.92 -10.28,-3.69 l -5.37,5.54 c 4.18,4.37 9.07,5.78 15.53,5.78 8.9,0 15.76,-4.79 15.76,-13.29 m -38.54,-0.55 h -8.42 c -0.83,3.51 -3,6.21 -7.17,6.21 a 6.74,6.74 0 0 1 -5.31,-2.28 c -1.62,-1.84 -2.1,-3.93 -2.1,-12.38 0,-8.45 0.48,-10.53 2.1,-12.38 a 6.77,6.77 0 0 1 5.31,-2.28 c 4.18,0 6.34,2.71 7.17,6.23 h 8.46 c -1.49,-9.18 -7.71,-13.85 -15.65,-13.85 a 15.42,15.42 0 0 0 -11.46,4.79 c -4.3,4.44 -4.18,9.92 -4.18,17.49 0,7.57 -0.12,13.06 4.18,17.5 a 15.42,15.42 0 0 0 11.46,4.79 c 7.88,0 14.16,-4.67 15.65,-13.84 m -42.49,-30.36 h -8.3 v 43.85 h 8.3 z m -20.84,43.83 v -43.81 h -8.3 v 26.85 l -16.85,-26.85 h -7.4 v 43.83 h 8.3 v -26.9 l 16.85,26.9 z m -52.14,-21.92 c 0,8.45 -0.48,10.48 -2.09,12.33 a 6.82,6.82 0 0 1 -5.32,2.33 7,7 0 0 1 -5.38,-2.33 c -1.62,-1.85 -2,-3.88 -2,-12.33 0,-8.45 0.41,-10.47 2,-12.31 a 7,7 0 0 1 5.38,-2.35 6.81,6.81 0 0 1 5.32,2.35 c 1.61,1.84 2.09,3.88 2.09,12.31 m 8.3,0 c 0,-7.57 0.06,-13.05 -4.23,-17.49 a 16.21,16.21 0 0 0 -23,0 c -4.29,4.44 -4.18,9.92 -4.18,17.49 0,7.57 -0.11,13.06 4.18,17.5 a 16.21,16.21 0 0 0 23,0 c 4.29,-4.44 4.23,-9.92 4.23,-17.5 m -49.65,-8.5 c 0,3.39 -2.38,5.8 -6,5.8 h -7.83 V 150.5 h 7.83 c 3.65,0 6,2.4 6,5.78 m 10,30.42 -9.49,-18.9 a 11.77,11.77 0 0 0 7.76,-11.52 c 0,-7.33 -5.13,-13.41 -13.8,-13.41 H 1146 v 43.83 h 8.3 v -17.48 h 6 l 8.32,17.48 z m -41.94,-36.2 v -7.63 h -30.52 v 7.63 h 11.11 v 36.2 h 8.3 v -36.2 z m -38.16,22.73 h -8.41 c -0.84,3.51 -3,6.21 -7.18,6.21 a 6.74,6.74 0 0 1 -5.31,-2.28 c -1.62,-1.84 -2.09,-3.93 -2.09,-12.38 0,-8.45 0.47,-10.53 2.09,-12.38 a 6.77,6.77 0 0 1 5.31,-2.28 c 4.19,0 6.34,2.71 7.18,6.23 h 8.41 c -1.49,-9.18 -7.7,-13.85 -15.65,-13.85 a 15.44,15.44 0 0 0 -11.46,4.79 c -4.29,4.44 -4.18,9.92 -4.18,17.49 0,7.57 -0.11,13.06 4.18,17.5 a 15.44,15.44 0 0 0 11.46,4.79 c 7.89,0 14.16,-4.67 15.65,-13.84 m -40.28,13.47 v -7.62 h -19.72 v -10.66 h 16.79 v -7.64 h -16.79 V 150.5 h 19.72 v -7.63 h -28 v 43.83 z m -37.77,0 v -7.62 h -19.3 v -36.21 h -8.29 v 43.83 z m -38.46,0 v -7.62 h -19.71 v -10.66 h 16.78 v -7.64 H 961.86 V 150.5 h 19.71 v -7.63 h -28 v 43.83 z"
       id="path80" />
    <path
       d="m 1295.77,103.2 v -6.4 h -16.07 v 7.14 h 7.82 v 1.66 a 8.6,8.6 0 0 1 -1.91,5.86 7.67,7.67 0 0 1 -5.91,2.46 6.76,6.76 0 0 1 -5.32,-2.28 c -1.62,-1.85 -2,-4 -2,-12.38 0,-8.38 0.41,-10.47 2,-12.31 a 6.81,6.81 0 0 1 5.32,-2.35 c 4.24,0 6.7,2.28 7.65,6.41 h 8.35 c -1.13,-7.39 -6.14,-14 -16,-14 a 15.25,15.25 0 0 0 -11.47,4.79 c -4.3,4.44 -4.18,9.92 -4.18,17.49 0,7.57 -0.12,13.06 4.18,17.49 a 16.54,16.54 0 0 0 23.48,-0.18 c 3,-3.2 4.06,-7 4.06,-13.37 m -43,18 V 77.34 h -8.29 v 26.86 l -16.86,-26.86 h -7.39 v 43.84 h 8.29 v -26.9 l 16.85,26.9 z m -45,-43.84 h -8.29 v 43.84 h 8.29 z m -18.28,30.37 H 1181 c -0.83,3.5 -3,6.21 -7.16,6.21 a 6.77,6.77 0 0 1 -5.32,-2.28 c -1.61,-1.84 -2.09,-3.93 -2.09,-12.38 0,-8.45 0.48,-10.53 2.09,-12.38 a 6.77,6.77 0 0 1 5.32,-2.28 c 4.18,0 6.33,2.71 7.16,6.22 h 8.43 C 1188,81.65 1181.73,77 1173.79,77 a 15.46,15.46 0 0 0 -11.47,4.79 c -4.3,4.44 -4.18,9.92 -4.18,17.49 0,7.57 -0.12,13.06 4.18,17.49 a 15.47,15.47 0 0 0 11.47,4.8 c 7.88,0 14.16,-4.67 15.65,-13.84 m -42.62,13.47 V 77.34 h -8.29 v 26.86 l -16.86,-26.86 h -7.4 v 43.84 h 8.3 v -26.9 l 16.85,26.9 z m -55,-15 h -10.57 l 5.37,-15.94 z m 13.38,15 -15.53,-43.84 h -6.51 l -15.47,43.84 h 8.66 l 2.57,-7.75 h 15.12 l 2.5,7.75 z m -38.17,-43.84 h -8.65 l -8.55,28.58 -8.54,-28.58 h -8.61 l 14,43.84 h 6.32 z m -49,21.74 c 0,6.65 -0.23,9.79 -1.79,11.76 a 7.31,7.31 0 0 1 -6.22,2.72 h -6.27 V 85 h 6.25 a 7.28,7.28 0 0 1 6.22,2.72 c 1.56,2 1.79,4.73 1.79,11.39 m 8.3,0 c 0,-6.6 0.48,-12.63 -4.3,-17.56 -2.81,-2.89 -6.81,-4.18 -11.23,-4.18 h -15.34 v 43.84 h 15.35 c 4.42,0 8.42,-1.29 11.23,-4.18 4.78,-4.93 4.3,-11.33 4.3,-17.92 M 973,106.22 h -10.54 l 5.37,-15.94 z m 13.38,15 -15.5,-43.88 h -6.51 l -15.47,43.84 h 8.66 l 2.56,-7.75 h 15.12 l 2.5,7.75 z"
       id="path82" />
    <path
       d="m 1292.27,24.07 c 0,5.36 -3.52,8 -8.48,8 h -11.36 V 16 h 11.36 c 5,0 8.48,2.72 8.48,8.07 m 5.37,31.59 -10.09,-19.89 c 5.5,-1.17 9.25,-5.35 9.25,-11.76 0,-7.57 -5.19,-12.19 -12.59,-12.19 h -16.32 v 43.84 h 4.54 V 36.2 h 10.22 l 9.68,19.46 z m -44.59,-21.92 c 0,9.18 -0.3,12.13 -3,15 a 10.18,10.18 0 0 1 -14.71,0 c -2.69,-2.84 -3,-5.79 -3,-15 0,-9.21 0.3,-12.13 3,-15 a 10.18,10.18 0 0 1 14.71,0 c 2.68,2.84 3,5.8 3,15 m 4.53,0 c 0,-9.3 0,-13.61 -4,-17.74 a 15.27,15.27 0 0 0 -21.75,0 c -4,4.13 -4,8.44 -4,17.74 0,9.3 0,13.61 4,17.74 a 15.27,15.27 0 0 0 21.75,0 c 4,-4.13 4,-8.44 4,-17.74 m -36,-17.74 v -4.18 h -26.39 v 43.84 h 4.53 V 36.32 h 18.64 v -4.18 h -18.64 V 16 Z m -56.08,8.07 c 0,5.36 -3.52,8 -8.48,8 h -11.36 V 16 H 1157 c 5,0 8.48,2.72 8.48,8.07 m 5.37,31.59 -10.08,-19.89 c 5.49,-1.17 9.25,-5.35 9.25,-11.76 0,-7.57 -5.2,-12.19 -12.61,-12.19 h -16.3 v 43.84 h 4.53 V 36.2 h 10.22 l 9.68,19.46 z m -39,0 V 51.48 H 1110 V 35.64 h 18.64 V 31.46 H 1110 V 16 h 21.87 v -4.18 h -26.4 V 55.66 Z M 1097,16 v -4.18 h -29.14 V 16 h 12.3 v 39.66 h 4.53 V 16 Z m -37.66,39.66 V 11.82 h -4.52 v 35 l -22.6,-35 h -4.28 v 43.84 h 4.53 V 20.5 l 22.59,35.16 z m -40.63,0 V 51.48 H 996.85 V 35.64 h 18.63 V 31.46 H 996.85 V 16 h 21.86 v -4.18 h -26.4 V 55.66 Z M 982.77,43 h -4.55 c -1.13,5.36 -4.89,8.87 -10.21,8.87 a 10.1,10.1 0 0 1 -7.35,-3.08 c -2.69,-2.83 -3,-5.85 -3,-15 0,-9.15 0.3,-12.2 3,-15 A 10.07,10.07 0 0 1 968,15.63 c 5.32,0 9,3.51 10.09,8.87 h 4.67 c -1.44,-8.25 -7.12,-13 -14.76,-13 A 14.93,14.93 0 0 0 957.14,16 c -4,4.13 -4,8.44 -4,17.74 0,9.3 0,13.61 4,17.74 A 14.93,14.93 0 0 0 968,56 c 7.58,0 13.38,-4.8 14.76,-13.05"
       id="path84" />
  </g>
</svg>
