<?xml version="1.0" encoding="UTF-8" standalone="no"?>
<!-- Created with Inkscape (http://www.inkscape.org/) -->

<svg
   width="24.311836mm"
   height="30.747671mm"
   viewBox="0 0 24.311836 30.747671"
   version="1.1"
   id="svg21"
   xml:space="preserve"
   inkscape:version="1.2 (dc2aedaf03, 2022-05-15)"
   sodipodi:docname="gapfruit.svg"
   xmlns:inkscape="http://www.inkscape.org/namespaces/inkscape"
   xmlns:sodipodi="http://sodipodi.sourceforge.net/DTD/sodipodi-0.dtd"
   xmlns="http://www.w3.org/2000/svg"
   xmlns:svg="http://www.w3.org/2000/svg"><sodipodi:namedview
     id="namedview23"
     pagecolor="#ffffff"
     bordercolor="#666666"
     borderopacity="1.0"
     inkscape:showpageshadow="2"
     inkscape:pageopacity="0.0"
     inkscape:pagecheckerboard="0"
     inkscape:deskcolor="#d1d1d1"
     inkscape:document-units="mm"
     showgrid="false"
     inkscape:zoom="0.63742816"
     inkscape:cx="-42.357715"
     inkscape:cy="373.37541"
     inkscape:window-width="956"
     inkscape:window-height="1041"
     inkscape:window-x="960"
     inkscape:window-y="18"
     inkscape:window-maximized="1"
     inkscape:current-layer="layer1" /><defs
     id="defs18" /><g
     inkscape:label="Layer 1"
     inkscape:groupmode="layer"
     id="layer1"
     transform="translate(-93.695673,-103.92138)"><path
       style="fill:#4c4c4c;stroke:none;stroke-width:0.264583"
       d="m 98.458172,104.21619 c -3.82675,0.90355 -4.762499,4.41981 -4.762499,7.84931 0,6.30674 3.464769,13.54958 7.452437,18.25625 1.89227,2.23362 4.62637,5.14351 7.8934,4.14524 1.82112,-0.55669 6.50187,-5.71369 4.40981,-7.7613 -1.56554,-1.53193 -2.75855,3.66528 -4.71858,3.0869 -4.74044,-1.39885 -7.52698,-9.52924 -8.64296,-13.75834 -0.407648,-1.54477 -1.268308,-3.7643 -0.440978,-5.29166 1.100498,-2.03169 5.227628,-2.31582 7.276038,-2.11667 1.3634,0.13256 3.4282,0.8541 3.30729,-1.32292 -0.20267,-3.64677 -9.17038,-3.70154 -11.773958,-3.08681 m 15.081248,3.48369 c -1.18348,0.54321 -0.51461,3.81286 1.05834,2.91042 1.12262,-0.64413 0.30083,-3.53431 -1.05834,-2.91042 m 3.70417,3.04271 v 2.11666 h 0.52917 c 0.39211,-0.93101 0.34237,-1.55278 -0.52917,-2.11666 m -0.74957,5.15937 c -0.98663,0.56378 -0.53234,2.95955 0.70538,2.29307 0.9316,-0.50157 0.43392,-2.94421 -0.70538,-2.29307 m -1.3671,5.55625 c -1.44568,0.2294 -1.36393,3.5306 0.26459,3.26311 1.43986,-0.23627 1.32609,-3.51552 -0.26459,-3.26311 z"
       id="path201" /></g></svg>
