<?xml version="1.0" encoding="UTF-8" standalone="no"?>
<svg
   xmlns:dc="http://purl.org/dc/elements/1.1/"
   xmlns:cc="http://creativecommons.org/ns#"
   xmlns:rdf="http://www.w3.org/1999/02/22-rdf-syntax-ns#"
   xmlns:svg="http://www.w3.org/2000/svg"
   xmlns="http://www.w3.org/2000/svg"
   xmlns:sodipodi="http://sodipodi.sourceforge.net/DTD/sodipodi-0.dtd"
   xmlns:inkscape="http://www.inkscape.org/namespaces/inkscape"
   version="1.1"
   id="svg2"
   width="187.01134"
   height="187.01132"
   viewBox="0 0 187.01134 187.01132"
   sodipodi:docname="sonotec.svg"
   inkscape:version="1.0.2 (e86c870879, 2021-01-15, custom)">
  <sodipodi:namedview
     pagecolor="#ffffff"
     bordercolor="#666666"
     borderopacity="1"
     objecttolerance="10"
     gridtolerance="10"
     guidetolerance="10"
     inkscape:pageopacity="0"
     inkscape:pageshadow="2"
     inkscape:window-width="956"
     inkscape:window-height="1041"
     id="namedview9"
     showgrid="false"
     fit-margin-top="0"
     fit-margin-left="0"
     fit-margin-right="0"
     fit-margin-bottom="0"
     inkscape:zoom="0.99514467"
     inkscape:cx="120.84344"
     inkscape:cy="127.77208"
     inkscape:window-x="960"
     inkscape:window-y="18"
     inkscape:window-maximized="0"
     inkscape:current-layer="svg2" />
  <metadata
     id="metadata8">
    <rdf:RDF>
      <cc:Work
         rdf:about="">
        <dc:format>image/svg+xml</dc:format>
        <dc:type
           rdf:resource="http://purl.org/dc/dcmitype/StillImage" />
        <dc:title></dc:title>
      </cc:Work>
    </rdf:RDF>
  </metadata>
  <defs
     id="defs6" />
  <g
     id="g10"
     transform="translate(-6.7560956,-7.0621901)">
    <g
       id="g845"
       transform="translate(-0.24390435,1.0735097)">
      <path
         style="fill:#e03640"
         d="M 7.6666667,192.33333 C 7.3,191.96667 7,184.20165 7,175.07774 V 158.48881 L 40.5,125 C 58.925,106.58116 74,91.047413 74,90.48057 74,89.168386 59.785157,75 58.468671,75 57.927307,75 46.691405,85.8 33.5,99 20.308595,112.2 8.9496107,123 8.2578133,123 7.2727122,123 7,115.81863 7,89.877815 V 56.755629 l 8,-8.196085 c 4.4,-4.507846 8,-8.626625 8,-9.152842 C 23,38.880486 19.625,35.09747 15.5,31 11.375,26.90253 8,22.85253 8,22 8,21.14747 11.275646,17.19616 15.279214,13.219313 L 22.558428,5.9886804 108.02921,6.2443402 193.5,6.5 l 0.25567,84.859011 0.25567,84.859009 -7.67908,7.89099 c -4.2235,4.34004 -8.15415,7.89099 -8.73479,7.89099 -0.58063,0 -4.77787,-3.70284 -9.3272,-8.22854 l -8.2715,-8.22853 -8.76917,8.72853 L 142.46043,193 h -32.6712 c -17.969156,0 -32.897561,-0.36627 -33.174229,-0.81393 -0.276669,-0.44765 10.075192,-11.36015 23.004135,-24.25 12.928944,-12.88984 23.974484,-24.27944 24.545654,-25.31024 0.88175,-1.5913 -0.0673,-2.98736 -6.28813,-9.25 C 113.84703,129.31913 109.87913,126 109.0591,126 c -0.82002,0 -16.589995,15.075 -35.044382,33.5 L 40.461286,193 H 24.39731 C 15.562123,193 8.0333333,192.7 7.6666667,192.33333 Z M 165.36316,169.04284 170,164.08568 v -31.48382 c 0,-21.52523 -0.34267,-31.69561 -1.08334,-32.15337 C 167.79413,99.75473 127,139.64189 127,141.43323 127,142.78738 158.29026,174 159.64777,174 c 0.5932,0 3.16513,-2.23072 5.71539,-4.95716 z M 140.27228,93.211504 170,63.423008 V 48.293291 c 0,-8.321344 -0.27314,-15.84152 -0.60699,-16.711504 -0.51881,-1.351996 -2.95213,-1.581777 -16.75,-1.581717 L 136.5,30.000141 106.78331,59.75007 C 90.439132,76.112532 76.749034,89.840098 76.360871,90.255773 75.405783,91.278556 107.00758,123 108.98159,123 c 0.85963,0 14.94044,-13.40482 31.29069,-29.788496 z M 99,31.259148 C 99,30.272949 92.000919,30 66.712408,30 H 34.424816 L 29.485542,35.014678 24.546268,40.029357 41.312892,56.715808 58.079516,73.40226 78.539758,52.960278 C 89.792891,41.717187 99,31.951679 99,31.259148 Z"
         id="path849" />
      <path
         style="fill:#263e48"
         d="M 7.6666667,192.33333 C 7.3,191.96667 7,184.19529 7,175.06361 V 158.46055 L 41.011543,124.50317 75.023087,90.545787 91.511543,107.01153 C 100.58019,116.06768 108,123.93486 108,124.49415 c 0,0.55928 -15.189946,16.2019 -33.755436,34.76137 L 40.489129,193 H 24.411231 C 15.568387,193 8.0333333,192.7 7.6666667,192.33333 Z M 77,191.74235 c 0,-0.69171 11.024164,-12.27493 24.49814,-25.74049 l 24.49814,-24.48284 16.50186,16.47912 C 151.57416,167.06166 159,174.94232 159,175.51071 c 0,0.5684 -3.7219,4.73601 -8.27089,9.26137 L 142.45822,193 H 109.72911 C 84.106258,193 77,192.72693 77,191.74235 Z M 7,89.780584 V 56.561167 l 7.917582,-7.780583 C 19.272252,44.501263 23.440026,41 24.179303,41 24.91858,41 32.692591,48.179667 41.454883,56.954817 56.804416,72.326873 57.338781,72.998465 56.08474,75.341662 54.342644,78.596798 9.7286809,123 8.2001905,123 7.2906893,123 7,114.95417 7,89.780584 Z"
         id="path847" />
    </g>
  </g>
</svg>
