<?xml version="1.0" encoding="UTF-8" standalone="no"?>
<svg
   xmlns:dc="http://purl.org/dc/elements/1.1/"
   xmlns:cc="http://creativecommons.org/ns#"
   xmlns:rdf="http://www.w3.org/1999/02/22-rdf-syntax-ns#"
   xmlns:svg="http://www.w3.org/2000/svg"
   xmlns="http://www.w3.org/2000/svg"
   version="1.1"
   id="svg2"
   width="862.89508"
   height="862.89526"
   viewBox="0 0 862.89508 862.89526">
  <metadata
     id="metadata8">
    <rdf:RDF>
      <cc:Work
         rdf:about="">
        <dc:format>image/svg+xml</dc:format>
        <dc:type
           rdf:resource="http://purl.org/dc/dcmitype/StillImage" />
        <dc:title></dc:title>
      </cc:Work>
    </rdf:RDF>
  </metadata>
  <defs
     id="defs6" />
  <g
     id="g10"
     transform="translate(-129.90289,-132.32866)">
    <path
       style="fill:#989898"
       d="m 393.85038,993.25515 c -5.63155,-2.632 -8.59917,-5.37254 -11.34732,-10.47904 -2.12325,-3.9453 -2.15652,-4.7963 -2.43351,-62.25 l -0.28083,-58.25 -13.21917,-8e-4 c -27.78659,0 -40.96593,-2.4709 -56.88316,-10.657 -20.22596,-10.402 -35.77974,-29.2135 -42.70514,-51.6495 -2.57957,-8.3571 -4.12893,-23.8924 -4.13003,-41.4118 l -8.4e-4,-13.2192 -58.25,-0.2808 -58.25,-0.2809 -4.41061,-2.5 c -15.96829,-9.051 -15.75161,-31.709 0.38212,-39.9581 l 4.9715,-2.5419 57.79331,-0.2954 57.7933,-0.2955 -0.26481,-29.7045 -0.26481,-29.7046 -58.5,-0.5 c -65.46273,-0.5595 -61.50361,-0.097 -68.23907,-7.9662 -7.60398,-8.8835 -7.61194,-20.7654 -0.0195,-29.1693 7.02773,-7.7789 2.92389,-7.306 68.25857,-7.8645 l 58.5,-0.5 v -30 -30 l -58.5,-0.5 c -65.33468,-0.5584 -61.23084,-0.086 -68.2586,-7.8644 -7.59241,-8.4039 -7.58445,-20.2858 0.0195,-29.1694 6.73549,-7.8688 2.77637,-7.4067 68.2391,-7.9662 l 58.5,-0.5 0.26481,-29.7045 0.26481,-29.7045 -57.7933,-0.2955 -57.79331,-0.2955 -4.9715,-2.5419 c -16.13373,-8.249 -16.35041,-30.907 -0.38212,-39.9581 l 4.41061,-2.5 58.25,-0.2808 58.25,-0.2808 8.4e-4,-13.2192 c 0.002,-27.71114 2.47905,-40.99281 10.57929,-56.71917 8.26068,-16.03785 20.39888,-28.18773 36.36202,-36.397 15.80431,-8.12759 29.04682,-10.60041 56.77702,-10.60216 l 13.21917,-8.4e-4 0.28083,-58.25 0.28083,-58.25 2.5,-4.41061 c 9.05107,-15.96829 31.70905,-15.75161 39.9581,0.38212 l 2.5419,4.9715 0.29547,57.79331 0.29546,57.7933 29.70454,-0.26481 29.7045,-0.26481 0.5,-58.5 c 0.5595,-65.46273 0.097,-61.50361 7.9662,-68.23907 8.8836,-7.60398 20.7655,-7.61194 29.1694,-0.0195 7.7788,7.02776 7.306,2.92392 7.8644,68.2586 l 0.5,58.5 h 30 30 l 0.5,-58.5 c 0.5481,-64.12467 0.2367,-60.96397 6.6364,-67.36364 8.3034,-8.30341 21.2617,-8.69528 30.348,-0.91775 7.9259,6.78432 7.4558,2.77928 8.0156,68.28139 l 0.5,58.5 29.7046,0.26481 29.7045,0.26481 0.2955,-57.7933 0.2954,-57.79331 2.5419,-4.9715 c 8.2491,-16.13376 30.9071,-16.35044 39.9581,-0.38215 l 2.5,4.41061 0.2806,58.09756 0.2806,58.09757 20.7194,0.62537 c 22.1495,0.66855 29.7389,1.83137 40.8623,6.26077 20.4661,8.14977 35.7127,22.22021 45.4227,41.91873 7.7257,15.6731 9.8573,27.44482 9.9086,54.71917 l 0.026,13.7192 58.25,0.2808 58.25,0.2808 4.4106,2.5 c 15.9683,9.0511 15.7516,31.7091 -0.3821,39.9581 l -4.9715,2.5419 -57.7933,0.2955 -57.7933,0.2955 0.2648,29.7045 0.2648,29.7045 58.5,0.5 c 65.4627,0.5595 61.5036,0.097 68.2391,7.9662 7.604,8.8836 7.6119,20.7655 0.019,29.1694 -7.0278,7.7788 -2.9239,7.306 -68.2586,7.8644 l -58.5,0.5 v 30 30 l 58.5,0.5 c 65.3347,0.5585 61.2308,0.086 68.2586,7.8645 7.5924,8.4039 7.5845,20.2858 -0.019,29.1693 -6.7355,7.8689 -2.7764,7.4067 -68.2391,7.9662 l -58.5,0.5 -0.2648,29.75 -0.2649,29.75 h 54.3784 c 32.6796,0 56.5184,0.4059 59.7414,1.0171 6.9479,1.3177 12.1502,4.8304 15.422,10.4134 6.7382,11.4978 2.7618,25.5805 -9.0121,31.9169 -3.9453,2.1232 -4.7963,2.1565 -62.25,2.4335 l -58.25,0.2808 -0.026,13.7192 c -0.051,27.2743 -2.1829,39.046 -9.9086,54.7191 -8.7554,17.7619 -20.7317,29.7337 -38.5656,38.5508 -15.6505,7.7377 -27.4197,9.8721 -54.7191,9.9234 l -13.7192,0.026 -0.2808,58.25 c -0.277,57.4537 -0.3103,58.3047 -2.4335,62.25 -4.4991,8.35994 -13.1055,13.11444 -22.0652,12.18974 -10.6379,-1.098 -18.2753,-8.10764 -20.2651,-18.59964 -0.6112,-3.223 -1.0171,-27.0618 -1.0171,-59.7414 v -54.3784 l -29.75,0.2649 -29.75,0.2648 -0.5,58.5 c -0.5595,65.4627 -0.097,61.5036 -7.9662,68.2391 -8.8835,7.60404 -20.7654,7.61194 -29.1693,0.019 -7.7789,-7.0273 -7.306,-2.9234 -7.8645,-68.2581 l -0.5,-58.5 h -30 -30 l -0.5,58.5 c -0.5584,65.3347 -0.086,61.2308 -7.8644,68.2586 -8.4039,7.59244 -20.2858,7.58454 -29.1694,-0.019 -7.8688,-6.736 -7.4067,-2.7769 -7.9662,-68.2396 l -0.5,-58.5 -29.75,-0.2648 -29.74997,-0.2649 v 54.3784 c 0,32.6796 -0.40585,56.5184 -1.0171,59.7414 -0.5594,2.9498 -2.12432,7.0363 -3.4776,9.0813 -5.53572,8.36504 -18.46195,12.03424 -27.5053,7.80764 z"
       id="path14" />
  </g>
</svg>
